<?xml version="1.0" encoding="UTF-8"?>
<svg id="Layer_2" data-name="Layer 2" xmlns="http://www.w3.org/2000/svg" viewBox="0 0 213.6 185.7">
  <defs>
    <style>
      .cls-1 {
        fill: #fff;
        stroke-width: 0px;
      }
    </style>
  </defs>
  <g id="Layer_1-2" data-name="Layer 1">
    <g id="Artwork_32" data-name="Artwork 32">
      <g>
        <path class="cls-1" d="m121.1,136.9c2.3,1.4,4.1,3.2,12.8,2.7,8.7-.5,11-1.8,11-1.8v-2.7c0,0-8.2.4-24.4-4.6,0,0-1.6,5,.7,6.4"/>
        <path class="cls-1" d="m113.8,147.9c1,.8,31-1.4,31-1.4,1.4-1.4.5-6.8.5-6.8-24.2,3.7-25.5-1.6-25.5-1.6.1,2.6-6,4.8-6,4.8,0,0-2.3,3.1,0,4.9"/>
        <path class="cls-1" d="m164.7,146c2.1-1.3,5.5-3.6,5.5-3.6l-1.5-5.1s-11.9,4.6-21.5,1.9c0,0-1.8,3.6-.2,5.9,1,1.5,16.2,1.9,17.8.9"/>
        <path class="cls-1" d="m162.9,57.6c-12.1,0-15.7,6.4-16.6,8.6h0c4.1,4.1,14.6.3,14.6.3-12.8,1.4-13-1.3-13-1.3,0,0,5,2,12,0,3.1-.9,8.5-1.1,8.5-1.1l1.6-9.8c-3.7-10.5-19.2-6.4-23.3-.5-1.9,4.2-1.7,7.6-1.2,9.5,7.3-7.7,17.5-5.6,17.5-5.6"/>
        <path class="cls-1" d="m96.4,133.3c1.4,5,5.1,7.4,9.6,8,4.5.6,9.1-.5,11.4-3.2,2.3-2.7.4-8.5.4-8.5,0,0-3.9-2.4-10-6.4-5.1-3.4-12.8-.9-12.8-.9,0,0,0,5.9,1.4,11"/>
        <path class="cls-1" d="m160.7,83.9c-5-.5-11.5,2.2-14,8,0,0,8.4-5.7,17.8.9,0,0,2.6,0,2.8-3.5.2-3.6-1.6-4.9-6.7-5.4"/>
        <path class="cls-1" d="m39.8,97.2c7.3-.9,12.8-11,12.3-14.6-.5-3.7-3.2-21.9-3.2-21.9-19.6,11.9-10.5,30.6-10.5,30.6-16.9-16.9,6.9-31.5,6.9-31.5-24.2-11.5-27.6,5.6-27.9,6.8,1.4-21.8,28.5-12,28.5-12l-.7-7.5C27.3,25.7,3.4,54,11,73.9c9.1,23.8,29.2,27.9,29.2,27.9,0,0,13.7,2.3,14.2-1.8.5-4.1-.9-9.6-.9-9.6-3.7,10.1-13.7,6.9-13.7,6.9"/>
        <path class="cls-1" d="m97.4,139.7c-1.8-3.1-2.3-7.4-2.3-7.4,0,7.3-4.5,12.8-4.5,12.8,2.8,1.4,17.3,2.9,18.1,2.7,2.6-.5,2.7-4.2,2.7-4.2-7,.3-12.2-.8-14-3.9"/>
        <path class="cls-1" d="m147.7,138c1.7.3,10.6,1.9,16.4-.6,3.4-1.5,4.6-1,4.6-1v-2.7s-1-1-3.7-1.4c-2.6-.4-8.8,3.7-17.3,3.2,0,0-1.7,2.2,0,2.4"/>
        <path class="cls-1" d="m93.2,125c-2.3-3.2-8.6-2.8-8.6-2.8-2.6,1.3-5.2,7.4-5.2,7.4,0,0-.8,1.8.8,5.2,1.6,3.3,8,10.4,8,10.4,0,0,7.3-16.9,5-20.1"/>
        <path class="cls-1" d="m106.5,59.7c8.2-4.6,17.6.1,17.6.1,0,0-3.8-5.6-10.7-7.9-6.9-2.3-20.1-.9-26.5,3.2-6.4,4.1-10.1,8.7-8.7,12.8,1.4,4.1,8.7,3.6,8.7,3.6,3.2,4.5,11,3.7,11,3.7-6.4-.9-8.2-4.8-8.2-4.8,0,0,3.2,1.6,13,1.6,9.8,0,19.5-4.6,19.5-4.6,0,0-8.7,1.8-22.8,1.8s-18.8-3.2-18.8-3.2h28.4c18.3,0,19.2-2.3,19.2-2.3,0,0-1.4-1.4-8.2-3.2-6.9-1.8-13.2-.9-13.2-.9"/>
        <path class="cls-1" d="m111.4,81.1c-4.1-.5-9.2,0-9.2,4.2s8.7,2.7,8.7,2.7c11-2.7,20.1,3.2,20.1,3.2-5.9-7.8-15.5-9.6-19.6-10.1"/>
        <path class="cls-1" d="m159.9,68.8c-8.5,1.8-13,0-13.2,0,5.5,5.5,9.1,4.1,12.7,5.8,3.6,1.7,4.6.6,5.1.7.5,0,1.9-4.2,1.9-4.2-2.2,1.4-6,.5-6,.5,4.1-.8,7.1-2.2,6.9-4.1,0,0,1.4-.5-7.3,1.4"/>
        <path class="cls-1" d="m208.4,41.8c-3.2-3.8-7.6-5.8-12.9-5.8s-11.2,2.1-16.7,5.7c.8-2.2,1.7-4.7,2.3-7.2,1.3-5.7-1.7-8.1-3.9-9.8-1.6-1.2-3.3-2.6-5.2-5.9-.7-1.1-1.3-2.1-2-3,.2-.3.4-.7.6-1.1.1-.4.2-.8.2-1.2.2,0,.5,0,.6,0,1.8,0,3.3-1.4,3.7-3.1.4-1.7-.4-3.5-2-4.4-.5-.3-3.1-1.5-7.1-1.5s-4.6.4-6.9,1.2c-.1,0-.3,0-.4.1-.3-1-1.1-1.8-2-2.3-.5-.3-1.1-.4-1.7-.4-1,0-2,.4-2.7,1.1-1.2,1.1-2.3,2-3.4,2.8.3-1.2.4-2.1.4-2.6.2-1.9-.9-3.7-2.7-4.3-.4-.1-.8-.2-1.2-.2-1.4,0-2.7.7-3.5,2-1.1,1.9-3.5,5.2-6,7.2-.4-.2-.8-.4-1.3-.5-.2,0-2.1-.4-5.7-.4-5.4,0-14.4.7-27.1,4.1-15.1,4-30.3,14.7-38.1,20.7-.2-.9-.8-1.8-1.6-2.4-.3-.2-.7-.4-1.1-.5.4-1.4.9-2.6,1.3-3.3.9-1.7.4-3.8-1.1-5-.7-.6-1.6-.8-2.4-.8s-1.9.3-2.6,1c-1.7,1.5-3,3.2-3.9,4.9l-2.7-5.9c-.7-1.5-2.1-2.3-3.6-2.3s-.9,0-1.4.3c-2,.7-3,2.9-2.4,4.9,0,.1,1.2,4,2.8,9.8-3.4-2.4-8.4-4.5-15.5-5.3-1-.1-2-.2-3-.2C10.1,28.4,2.4,43.2.7,51.1c0,.3-5.3,28.4,13.7,46.8-.8,1.3-1.2,2.7-1.2,4.3,0,4.6,3.7,8.3,8.3,8.3s5.1-1.3,6.7-3.4c7.2,3.3,15,5,25.3,5.6,0,0,.2,0,.2,0s0,0,0,0c-1,7.2-2.4,14.4-4.1,21.3-4.6,18.5,4.6,27.4,5,27.7.8.7,1.7,1.1,2.7,1.1s1,0,1.5-.3c4.1,9,9.4,16.4,9.7,16.8.8,1.1,2,1.7,3.2,1.7s1.1-.1,1.7-.4c.2,1,.3,1.7.3,1.7.3,1.9,2,3.3,3.9,3.3s.2,0,.3,0c2-.1,3.6-1.8,3.7-3.8,0-2.3.1-6.7,0-11.5,6.9,8.3,18.3,14.9,40.4,14.9s26.6-2.9,35-9.3c2.7-2.1,5.8-4.5,10.4-7.2,16.5-9.7,15.1-25.2,12.1-32-.5-1.1-1.5-1.9-2.6-2.2-.3-.7-.6-1.4-.9-2.1.6-1.6.1-3.9-1.6-9.3.7-.7,1.2-1.7,1.2-2.8,0-1.4-.1-5.2-.4-9.6,2.9-2,21.8-15.3,29.9-26.9,8.5-12.2,12.5-31,3.4-41.8M21.5,106.5c-2.4,0-4.3-1.9-4.3-4.3s1.9-4.3,4.3-4.3,4.3,1.9,4.3,4.3-1.9,4.3-4.3,4.3m32.2,2.3c-11.7-.7-19.4-2.8-26.5-6.6,0-.2,0-.3,0-.5,0-2.9-2.4-5.3-5.3-5.3s-1.7.2-2.5.6C.6,81.4,3.9,54.9,4.6,52c.9-4.1,7.1-21.3,24.5-19.4,17.4,1.8,19.6,12.3,19.6,12.3,7.8,37.5,8.2,46.1,7.8,52.1-.5,5.9-2.7,11.9-2.7,11.9m24,72.9s-1.6-8.9-5.3-16.2c-3.7-7.3-4.3-18-4.3-18,0,0-6.2,8.5,3.7,29.7,0,0-8.2-11.4-11.9-22.8-3.7-11.4-2.3-21-2.3-21,0,0-4.2,12.5-.3,25.7,0,0-8-7.4-3.9-23.8,4.1-16.4,6.7-36.1,6.1-52.3-.6-16.2-13.6-59.8-13.6-59.8l9.8,21.7s-5.3-12.1,3-19.4c0,0-5,9.6-.4,15.3,0,0-.7-4.1,1.6-6.4,0,0-2.2,5,1.2,6.4,0,0,21.2-18.7,41.8-24.2,20.6-5.5,31.1-3.7,31.1-3.7,0,0-9.1.9-14.2,5.5,0,0,5.9-2.7,12.8-3.2,6.9-.5,12.8-11,12.8-11,0,0-.9,7.3-3.9,9.8,0,0,5.7.7,13.5-6.6,0,0-.3,3.6-3.9,6.5,2.6-1.3,6-3,9.4-4.2,6.4-2.3,10.8,0,10.8,0,0,0-7.6.4-12.2,4.5,0,0,4.1-2.3,7.8-.5,0,0-3.4-.4-6.5,1.6,1-.5,4.2-1.5,8.4,5.7,5,8.7,10.1,6.9,8.7,12.8-1.4,5.9-4.6,12.3-4.6,12.3l-.5-2.7s.9-4.6-9.6-6.4c-10.5-1.8-10.5,2.6-21.2,3.1-10.7.5-27.6-3.6-27.6-3.6,0,0-10.6-3.2-22,.9-11.4,4.1-18.7,12.8-20.6,19.6-1.8,6.9-2.7,16.4,4.6,22.8,7.3,6.4,17.4,6.4,17.4,6.4,0,0-.5,5,3.7,6.9,4.1,1.8,6.9,1.8,6.9,1.8,0,0-13.2,4.6-21.9,13.7-8.7,9.1-16.9,17.8-16.4,23.3.5,5.5,1.1,10.7,9.1,21.5,3.9,5.2,3.2,28.3,3.2,28.3m70.4-85.9c.4,0,6.5,1.5,10.5,5.5,4.1,4.1,8.7,12.8,11.4,21,2.7,8.2,2.3,8.7,2.3,8.7,0,0-5.5-3.7-10.1-3.7s-3.7,3.2-12.8,4.1c0,0,4.6-1.4,5.9-4.6,0,0-6.9,2.7-7.8,0-.9-2.7,4.1-5.9,0-13.2-4.1-7.3-7.3-14.2-3.2-21,4.1-6.9,1.8-12.8,1.8-12.8,0,0,22.8-2.7,24.2,8.2,1.3,10.8-21.6,7.9-22.4,7.8m23.5,24.4c-4.6-18.3-14.2-22.2-14.2-22.2,5.9,1.1,11.3-3.2,11.3-3.2,2.6,5.2,2.9,25.4,2.9,25.4m-72.4-5.7c2.7,2.3,12.2,10.5,28.2,15.1,16.1,4.6,28,4.6,34.8,0,0,0,5.5-.7,8.4,1.8,2.8,2.5,5.1,10.7,2.8,13.5-2.3,2.7-12.3,4.1-20.6,4.1s-36.5,1.8-51.6,0c-15.1-1.8-28.8-7.3-27.4-13.2,1.4-5.9,7.8-15.1,16.9-21.5,9.1-6.4,10.1-6.4,10.1-6.4,0,0-4.3,4.3-1.6,6.6m65.8-35.6s-4.8-2.1-10.3-3.4c-5.5-1.4-10.6-.6-10.6-.6-4.4-5-4.1-15.7-1.5-20.1,3.9-6.6-.9-11.9-.9-11.9,5.9.9,16.4-1.8,20.6-1.8s8.7.9,10.1,7.4c1.4,6.5-3.2,20.5-4.6,25-1.4,4.6-2.7,5.5-2.7,5.5m-26.6-13.5c-4.4-2.3-3.3-10.5-3.3-10.5-2,10.6,4.6,20.5,5.7,20.9-11.3-3.9-22.2,0-22.2,0-21.7-7.5-23.3,7.3-23.3,7.3-22.4-5.9-20.1-11.4-19.6-18.7.5-7.3,5.5-16.9,16.9-21.5,11.4-4.6,21.5-2.3,30.9.9,9.4,3.2,13.9,0,13.9,0,0,0,6.9,4.6,2.3,9.8-4.5,5.1-1.4,11.5-1.2,11.7m37.6,72.9s7.3,16.4-10.5,27c-17.8,10.5-13.7,16-43.4,16s-38.2-12.6-42.9-22.4c-5.7-11.7-10.7-15.8-11.7-23.1-1.3-9.4,15.2-25.8,27.8-31.6.4-.2.8-.4,1.2-.6,5.9-2.7,19.6-9.1,26.5-9.1s8.7,8.7,8.7,8.7c0,0,.5-2.7-2.3-7.3-2.7-4.6-11.9-5.5-21.9-5.5s-7.3-6.9-7.3-6.9c0,0-.5-5.9,10.5-5.5,11,.5,24.8,10.8,24.8,10.8-1.7-7.5-7.7-8.5-7.7-8.5,0,0,7.1-1.8,12.1,0,5,1.8,2.3,9.1-.9,18.7-3.2,9.6,1.8,11.4,3.7,20.6,1.8,9.1-1.4,7.8-5,6.4-3.7-1.4-5-5-5-5,0,4.1,3.2,8.2,3.2,8.2-19.9-6.4-29-13.5-32.4-16.7-1.5-1.4-1.5-3.9.1-5.3,1.7-1.5,4-1.8,4-1.8,0,0-3.7-.9-7.2.7-.2,0-.4.2-.5.3-.6.5-1,.8-1,.8,0,0-22.5,11.3-26.6,28.2-2.1,8.4,12.6,13,12.6,13,0,0,11.9,4.6,36.1,4.1,24.2-.5,39.7-.7,46.1-2.6,6.4-2,9.2-2.4,9.2-11.5m25.8-56.9c-8.2,11.9-29.2,26.1-29.2,26.1.5-3.1-1.5-13.3-1.5-13.3,0,0,2.8-2.3,1.9-7.3-.9-5-6.1-7.4-6.1-7.4,6.7-9.7,8.4-29.6,8.4-29.6,8.7-8.7,22.8-14.2,30.2-5.5,7.3,8.7,4.6,25.1-3.7,37"/>
        <path class="cls-1" d="m194.7,48.7c-4.6-.9-16.3,5.4-16.3,5.4l-.9,4.2s4-2.7,11.7-1.4c7.8,1.4,9.4,4.9,9.4,4.9,0,0-5.6-2.6-8.6-2.6,0,0,5.8,11.9-6.6,24,.1-.3,4.8-9.5,4-16.9-.9-7.5-2.5-7.1-2.5-7.1,0,0-6.2-.3-8.2,2.6,0,0-1.2,9.3-5.1,15.7,0,0,4.4,3.6,4.8,10.5,0,0,.9,2.3,5.9-1.4,0,0,0,3.4-8,5.6,0,0,0,2.6-1,3.1l1,5.3s11.2-9.4,15.7-15.3c4.6-5.9,11-13.2,11.9-22.4.9-9.1-2.7-13.2-7.3-14.2"/>
      </g>
    </g>
  </g>
</svg>