<svg width="47" height="40" viewBox="0 0 47 40" fill="none" xmlns="http://www.w3.org/2000/svg">
<path d="M46.6916 13.4472C46.3821 17.7083 43.5403 20.4003 43.3955 20.5204L43.3899 20.5247L43.3695 19.3487C45.8529 16.8727 45.8659 13.1798 45.8659 13.1798C45.804 6.1679 41.3602 7.76303 39.7379 8.61538C39.4432 8.77012 39.234 8.90321 39.1474 8.96015L39.1406 8.96449L39.1034 8.98925C39.1034 8.98925 35.7194 11.2387 31.4279 20.5643C27.3587 29.3979 20.3146 35.5284 13.1139 35.9599C12.7219 35.9834 12.3299 35.9898 11.9378 35.979H11.9056C4.29207 35.7525 0 28.995 0 24.5896C0 19.3183 3.75665 16.9389 4.20913 16.6325L4.25122 16.6047C4.25122 16.6047 4.4004 17.6631 4.12742 17.678C4.1008 17.6947 4.07481 17.712 4.04881 17.73C2.94206 18.4635 2.20546 19.426 1.71584 20.3954C1.06909 21.5288 0.730018 22.8117 0.732265 24.1167C0.732265 24.2533 0.735979 24.3891 0.743407 24.524C0.743102 24.5261 0.743102 24.5282 0.743407 24.5302C0.79089 25.4492 1.00766 26.3516 1.38282 27.1919C2.25993 29.6616 3.62233 30.5852 4.87578 30.8439C5.69346 31.0129 6.45915 30.8619 7.02305 30.7096C7.42292 30.6013 7.67609 30.5369 7.67609 30.5369L7.71075 30.5245C10.8441 29.7551 13.6048 27.0755 15.7818 24.1576C18.9689 19.8866 20.9002 15.1203 20.9002 15.1203C20.9002 15.1203 25.1167 5.24746 31.4329 2.68732L31.4453 2.68237C31.7214 2.57006 32.0032 2.47233 32.2896 2.38958L32.38 2.3642H32.3886C39.2353 0.751738 42.9145 5.01595 42.9145 5.01595C42.9145 5.01595 47.0283 8.82583 46.6916 13.4472Z" fill="white"/>
<path d="M29.3286 0.796639C29.2314 0.768165 29.133 0.740312 29.0352 0.713076L28.9281 0.683983C28.8662 0.667271 28.8043 0.650557 28.7424 0.635083C28.6805 0.619608 28.6254 0.604752 28.5666 0.590515L28.3475 0.536664C28.3295 0.531712 28.3116 0.527379 28.293 0.523665L28.1191 0.483431C27.4207 0.324311 26.7139 0.204247 26.0021 0.123798C25.8232 0.103371 25.6437 0.0860395 25.4636 0.0705647C25.3287 0.058185 25.1933 0.0480745 25.0576 0.0402339C24.9486 0.0328061 24.8397 0.0266169 24.7301 0.021665L24.5073 0.0123796H24.454C24.3884 0.00990364 24.3228 0.0080469 24.2572 0.00680892C24.2349 0.00680892 24.2126 0.00680892 24.1904 0.00680892L24.0139 0C23.9242 0 23.8351 0 23.7453 0C19.3299 0.00182199 15.0423 1.48196 11.5661 4.20438C8.08986 6.92681 5.62527 10.7348 4.56529 15.021C4.46254 15.4419 4.37341 15.8672 4.29789 16.2968C4.23434 16.6603 4.1809 17.0261 4.13757 17.3942C4.08847 17.8069 4.05256 18.2235 4.02987 18.644C4.0113 19.0092 4.00201 19.3764 4.00201 19.7458C3.99344 23.1957 4.89442 26.587 6.61415 29.5778C6.84714 29.5269 7.07664 29.4612 7.30123 29.3809C5.58266 26.4611 4.67849 23.1338 4.6829 19.7458C4.6829 19.1973 4.70601 18.6547 4.75223 18.1178C4.8274 17.2256 4.966 16.3399 5.16695 15.4673C7.1112 7.0082 14.7031 0.680888 23.7478 0.680888C23.8295 0.680888 23.9118 0.680888 23.9954 0.680888H24.1297C24.1916 0.680888 24.2535 0.680889 24.3154 0.685222C24.4095 0.685222 24.5011 0.691411 24.5964 0.695744C24.6917 0.700077 24.7821 0.70441 24.8768 0.709981C26.7481 0.823267 28.5923 1.21227 30.3499 1.8644L30.3617 1.85821C30.6526 1.71089 30.9448 1.57904 31.2382 1.46267C30.6137 1.2076 29.9763 0.985282 29.3286 0.796639ZM43.4892 19.453L43.4855 19.2753C43.4855 19.1831 43.4805 19.0896 43.4768 18.9986C43.4768 18.9411 43.4725 18.8841 43.47 18.8266C43.47 18.7801 43.4657 18.7337 43.4632 18.6873C43.4632 18.6737 43.4632 18.6607 43.4632 18.6471L43.4502 18.4273C43.4353 18.2082 43.4172 17.9897 43.3957 17.7718C43.0885 14.6656 42.0452 11.6775 40.3522 9.05519C40.3026 9.08057 40.1881 9.14433 40.0724 9.21056C39.9313 9.29041 39.7883 9.37398 39.7592 9.39316C40.9263 11.1913 41.7787 13.175 42.2797 15.2593C42.2964 15.3274 42.3125 15.3961 42.328 15.4642C42.3435 15.5323 42.3602 15.606 42.3756 15.6765C42.3911 15.7471 42.4072 15.8232 42.4221 15.8969C42.4369 15.9705 42.453 16.0492 42.4679 16.1253C42.4827 16.2014 42.4976 16.2825 42.5118 16.3617C42.5261 16.441 42.5409 16.5252 42.5545 16.6093C42.5545 16.6211 42.5589 16.6335 42.5607 16.6459C42.5834 16.7833 42.604 16.9211 42.6226 17.0593C42.6226 17.0748 42.6269 17.0903 42.6294 17.1064C42.6393 17.1788 42.6492 17.2506 42.6579 17.323C42.669 17.4091 42.6796 17.4951 42.6889 17.5812C42.6955 17.6373 42.7016 17.6936 42.7074 17.7501C42.7105 17.7811 42.7142 17.812 42.7167 17.8424C42.7241 17.9142 42.7309 17.9866 42.7371 18.059C42.7433 18.1314 42.7489 18.1977 42.7545 18.267C42.7545 18.2788 42.7545 18.2905 42.7545 18.3017C42.7545 18.332 42.7588 18.3636 42.7613 18.3914C42.7613 18.436 42.7675 18.4805 42.7699 18.5257C42.7743 18.5876 42.7774 18.6452 42.7805 18.7052C42.7805 18.7535 42.786 18.8012 42.7879 18.8495C42.7897 18.8977 42.7928 18.9584 42.7947 19.0123C42.7947 19.094 42.8009 19.1751 42.8027 19.2568C42.8046 19.3385 42.8065 19.4208 42.8071 19.5044C42.8077 19.5879 42.8071 19.6684 42.8071 19.7519C42.8073 20.5189 42.7615 21.2851 42.6697 22.0465C41.5363 31.475 33.4814 38.8106 23.7478 38.8106C20.5173 38.8149 17.3394 37.9928 14.5162 36.4226C14.1299 36.4791 13.7439 36.5204 13.358 36.5464C16.2282 38.3193 19.5047 39.3277 22.8751 39.4753C26.2455 39.6229 29.5976 38.9049 32.6118 37.3896C35.626 35.8743 38.2019 33.6123 40.094 30.8192C41.9861 28.0261 43.1313 24.795 43.4205 21.4337C43.4552 21.0211 43.477 20.6049 43.4861 20.1852C43.489 20.0392 43.4906 19.8927 43.4911 19.7458C43.4935 19.648 43.4935 19.5508 43.4892 19.453Z" fill="white"/>
</svg>
